<svg xmlns="http://www.w3.org/2000/svg" width="375.794" height="116.916" viewBox="0 0 375.794 116.916"><g transform="translate(-435.208 -208.404)"><path d="M693.42,279.607h-16.7V254.554h-4.176v29.229H693.42Z" transform="translate(-11.858 -2.306)" fill="#fff"/><path d="M592.606,262.906c0-4.184-2.056-8.351-10.207-8.351H569.262v29.228h4.172V271.257h7.307L587,283.783h5.22l-6.768-12.526c5.095,0,7.151-4.175,7.151-8.351m-19.172,4.176V258.73h8.926c4.107-.008,6.08,1.044,6.08,4.172s-1.973,4.179-6.08,4.179Z" transform="translate(-6.698 -2.306)" fill="#fff"/><path d="M546.4,254.555h-4.175L529.7,283.783h4.175l2.77-6.263h15.338l2.769,6.263h4.175Zm-7.911,18.789,5.822-13.169,5.823,13.169Z" transform="translate(-4.721 -2.306)" fill="#fff"/><path d="M625.076,254.555l-10.439,23.608L604.2,254.555h-4.176l12.526,29.229h4.175l12.526-29.229Z" transform="translate(-8.235 -2.306)" fill="#fff"/><path d="M649.689,254.555h-4.175l-12.527,29.228h4.176l2.77-6.263H655.27l2.77,6.263h4.175Zm-7.911,18.789,5.823-13.169,5.823,13.169Z" transform="translate(-9.882 -2.306)" fill="#fff"/><path d="M502.56,272.036l-9.1-17.481h-5.509v29.228h4.071v-23.06l8.688,16.771h3.709l8.688-16.771v23.06h4.071V254.555h-5.509Z" transform="translate(-2.635 -2.306)" fill="#fff"/><path d="M435.208,293.673h33.4V243.567h-33.4Zm29.229-4.179H439.384V247.742h25.052Z" transform="translate(0 -1.757)" fill="#fff"/><rect width="12.525" height="4.175" transform="translate(445.647 277.302)" fill="#fff"/><rect width="12.525" height="4.175" transform="translate(445.647 252.249)" fill="#fff"/><rect width="12.525" height="4.175" transform="translate(445.647 264.775)" fill="#fff"/><rect width="4.176" height="31.316" transform="translate(604.313 291.916)" fill="#fff"/><path d="M608.3,210.6h-2.889l-2.088,3.132h4.533c3.452,0,4.86,1.368,4.86,4.723V241.92h4.176V218.926c0-5.678-2.729-8.323-8.592-8.323" transform="translate(-8.4 -0.11)" fill="#fff"/><path d="M766.16,208.4a58.458,58.458,0,1,0,58.458,58.458A58.458,58.458,0,0,0,766.16,208.4m0,112.683a54.225,54.225,0,1,1,54.225-54.225,54.225,54.225,0,0,1-54.225,54.225" transform="translate(-13.615 0)" fill="#fff"/><path d="M682.948,208.4a58.459,58.459,0,0,0-52.825,33.405h4.738a54.221,54.221,0,0,1,100.3,10.439h4.4A58.483,58.483,0,0,0,682.948,208.4" transform="translate(-9.739 0)" fill="#fff"/><path d="M740.666,269.576a6.393,6.393,0,0,1,6.56-6.519,5.65,5.65,0,0,1,4.683,2.141l.025-1.869h2.079v12.527h-2.079l-.025-1.9a5.649,5.649,0,0,1-4.683,2.141,6.393,6.393,0,0,1-6.56-6.519m6.811,4.473a4.485,4.485,0,0,0,0-8.969,4.485,4.485,0,1,0,0,8.969" transform="translate(-15.262 -2.731)" fill="#fff"/><path d="M764.138,262.751c3.255,0,5.208,1.974,5.208,5.306V275.6h-2.3v-7.471c0-2.141-1.027-3.307-2.9-3.307-1.9,0-2.93,1.166-2.93,3.307V275.6h-2.3v-7.542c0-3.331,1.929-5.306,5.234-5.306m-1.953-4.854c1.627,0,2.4,1.38,3.48,1.38.577,0,.977-.4,1-1.309h1.627c0,1.974-1.076,2.974-2.5,2.974-1.627,0-2.378-1.379-3.455-1.379-.576,0-.977.357-1.027,1.285h-1.6c0-2.046,1.127-2.951,2.479-2.951" transform="translate(-16.173 -2.473)" fill="#fff"/><path d="M773.066,269.6a6.8,6.8,0,1,1,6.811,6.543,6.544,6.544,0,0,1-6.811-6.543m6.811,4.473a4.5,4.5,0,1,0-4.507-4.473,4.334,4.334,0,0,0,4.507,4.473" transform="translate(-16.881 -2.728)" fill="#fff"/><path d="M790.075,275.861v-1.928a22.888,22.888,0,0,0,2.479.167c1.7,0,2.5-.524,2.5-1.594,0-.786-.476-1.357-1.7-2.117l-.877-.547c-1.727-1.071-2.5-2.094-2.5-3.45,0-2,1.627-3.236,4.332-3.237a16.156,16.156,0,0,1,2.028.144v1.76c-.751-.071-1.327-.095-1.7-.095-1.578,0-2.4.5-2.4,1.4,0,.666.5,1.189,1.727,1.951l.876.547c1.8,1.118,2.579,2.165,2.579,3.616,0,2.214-1.753,3.522-4.757,3.522-.651,0-1.6-.047-2.579-.142" transform="translate(-17.726 -2.736)" fill="#fff"/><path d="M682.948,324.931a54.208,54.208,0,0,1-48.087-29.172h-4.738a58.459,58.459,0,0,0,109.42-10.439h-4.381a54.234,54.234,0,0,1-52.214,39.611" transform="translate(-9.739 -3.843)" fill="#fff"/></g></svg>